<?xml version="1.0" standalone="no"?>
<!DOCTYPE svg PUBLIC "-//W3C//DTD SVG 20010904//EN"
 "http://www.w3.org/TR/2001/REC-SVG-20010904/DTD/svg10.dtd">
<svg version="1.0" xmlns="http://www.w3.org/2000/svg"
 width="106.000000pt" height="106.000000pt" viewBox="0 0 106.000000 106.000000"
 preserveAspectRatio="xMidYMid meet">
<metadata>
Created by potrace 1.11, written by Peter Selinger 2001-2013
</metadata>
<g transform="translate(0.000000,106.000000) scale(0.100000,-0.100000)"
fill="#000000" stroke="none">
<path d="M433 1024 c-161 -35 -319 -161 -390 -310 -37 -78 -38 -81 -38 -199 0
-115 1 -123 33 -189 41 -86 107 -165 181 -215 62 -42 177 -91 213 -91 20 0 19
2 -12 21 -57 35 -144 133 -178 201 -49 95 -68 203 -54 306 6 45 14 87 17 92
10 16 85 32 118 24 18 -3 40 -13 49 -21 11 -10 26 -13 43 -9 31 8 33 36 5 82
-32 50 -103 66 -173 39 -15 -6 -12 3 13 50 54 100 122 168 217 215 44 22 40
23 -44 4z m-253 -318 c0 -2 -8 -10 -17 -17 -16 -13 -17 -12 -4 4 13 16 21 21
21 13z"/>
<path d="M742 755 c-35 -15 -67 -71 -56 -99 10 -26 42 -29 70 -7 35 28 108 28
149 1 39 -26 45 -25 45 8 0 33 -24 63 -70 91 -40 24 -91 26 -138 6z"/>
<path d="M750 358 c-23 -38 -94 -84 -144 -93 -60 -12 -122 3 -171 41 -49 37
-72 42 -82 18 -7 -18 50 -81 87 -96 105 -41 217 -29 282 30 47 42 91 108 83
122 -12 19 -36 10 -55 -22z"/>
</g>
</svg>
